<svg fill="none" height="158" viewBox="0 0 154 158" width="154" xmlns="http://www.w3.org/2000/svg" xmlns:xlink="http://www.w3.org/1999/xlink"><clipPath id="a"><path d="m0 0h108v120h-108z" transform="matrix(.8660254 .5 -.5 .8660254 60 0)"/></clipPath><g clip-path="url(#a)"><path d="m130.913 73.2053c.726 16.56-4.016 30.2017-13.743 41.9957-6.248 7.567-12.83 14.865-19.4526 22.11-1.9571 2.137-4.4496 3.836-6.893 5.471-8.1539 5.441-15.7124 5.485-23.6544-.265-3.9147-2.771-7.5133-5.964-10.7309-9.52-5.8958-6.676-11.473-13.652-16.919-20.703-8.0171-10.37-11.4706-22.2977-11.7849-35.266-.2165-8.1953.2275-16.3121 2.9189-24.127 6.4228-18.6337 19.8671-28.8116 39.0456-31.6086 9.9259-1.4662 19.8663-.9968 29.4217 2.3831 18.6306 6.5814 28.4866 20.2547 31.3656 39.4027.23 1.3248.378 2.6623.442 4.005.049 2.4509-.01 4.868-.016 6.1221zm-64.5499 44.8967c7.3295.04 9.2493-2.346 7.8788-8.057-.3773-1.549-.9001-3.06-1.5615-4.512-3.4375-7.6131-8.4738-14.4012-14.7668-19.9029-2.0163-1.7669-4.2888-3.2183-6.7399-4.3048-4.2035-1.8154-8.6383-.0263-10.0713 4.3053-.9013 2.7637-1.3557 6.0067-.8482 8.8267 1.5836 8.8797 7.5123 14.7717 14.8091 19.4557 3.8953 2.511 8.1095 4.106 11.2998 4.189zm24.8218.194c.8546-.029 1.7057-.122 2.5463-.277 9.7968-2.222 17.2168-7.808 22.2058-16.398 1.468-2.6287 2.389-5.527 2.708-8.5217.447-4.0796-.243-8.2105-4.099-10.7281-3.497-2.281-7.062-1.282-10.143.9218-9.5318 6.8177-16.6513 15.5813-20.2195 26.855-1.729 5.471.512 8.098 7.0014 8.148zm-22.6185 10.756c.8213 3.904 6.8389 5.73 11.5223 5.4 3.8813-.274 7.5829-.914 9.8365-5.232z" fill="#cacccc"/></g></svg>