<svg xmlns="http://www.w3.org/2000/svg" viewBox="0 0 183.27 120"><path d="M140.56,49.68c.79,15.72-3.64,28.71-12.81,40-5.88,7.23-12.09,14.21-18.33,21.14a34.59,34.59,0,0,1-6.51,5.25c-7.7,5.23-14.87,5.32-22.44-.07a62,62,0,0,1-10.24-9c-5.63-6.3-11-12.88-16.17-19.54-7.64-9.77-11-21.09-11.38-33.4-.24-7.79.13-15.49,2.65-22.94C51.31,13.4,64,3.63,82.2.82a57.53,57.53,0,0,1,27.92,2.05c17.71,6.12,27.14,19,30,37.19a30.5,30.5,0,0,1,.44,3.8C140.61,46.17,140.56,48.49,140.56,49.68Zm-61,43.12c7,0,8.76-2.29,7.43-7.71a23.8,23.8,0,0,0-1.51-4.27A55.21,55.21,0,0,0,71.38,62,24.73,24.73,0,0,0,65,58c-4-1.71-8.2,0-9.51,4.17a18,18,0,0,0-.76,8.4c1.55,8.42,7.21,14,14.16,18.37C72.54,91.26,76.55,92.74,79.58,92.8Zm23.55,0a16.75,16.75,0,0,0,2.42-.29,31.7,31.7,0,0,0,21-15.74A21.21,21.21,0,0,0,129,68.65c.41-3.88-.27-7.8-3.94-10.16-3.34-2.14-6.71-1.16-9.62.95-9,6.55-15.71,14.93-19,25.66C94.83,90.32,97,92.8,103.13,92.8Zm-21.4,10.39c.8,3.7,6.52,5.39,11,5,3.68-.29,7.19-.93,9.3-5Z" style="fill:#747e80"/><g style="opacity:0.6"><path d="M151.3,87.48c2.45-.19,4.79-.62,6.2-3.36H144C144.52,86.59,148.34,87.71,151.3,87.48Z" style="fill:none"/><path d="M172.9,54.33c-2.22-1.43-4.47-.78-6.41.63a33,33,0,0,0-12.69,17.1c-1.08,3.49.35,5.14,4.45,5.14a11,11,0,0,0,1.62-.2,21.11,21.11,0,0,0,14-10.49,14.07,14.07,0,0,0,1.68-5.41C175.8,58.51,175.35,55.9,172.9,54.33Z" style="fill:none"/><path d="M183.21,48.45c0-.79,0-2.34,0-3.88a21.55,21.55,0,0,0-.3-2.53c-1.89-12.11-8.18-20.72-20-24.8a38.41,38.41,0,0,0-18.61-1.37,34.5,34.5,0,0,0-10.87,3.47,50.6,50.6,0,0,1,7.67,20.72,30.5,30.5,0,0,1,.44,3.8c.07,2.31,0,4.63,0,5.82a65.06,65.06,0,0,1-.36,11.16,37.55,37.55,0,0,1,5.3,8.37,15.82,15.82,0,0,1,1,2.85c.88,3.61-.32,5.12-5,5.14a13.24,13.24,0,0,1-5.29-1.54,55,55,0,0,1-3.93,7.58c1,1.16,2,2.31,3,3.44a41.37,41.37,0,0,0,6.83,6c5,3.59,9.82,3.53,15,0a23.44,23.44,0,0,0,4.34-3.5c4.16-4.62,8.3-9.28,12.22-14.1A37.49,37.49,0,0,0,183.21,48.45Zm-31.91,39c-3,.23-6.78-.89-7.31-3.36H157.5C156.09,86.86,153.75,87.29,151.3,87.48ZM175.53,61.1a14.07,14.07,0,0,1-1.68,5.41,21.11,21.11,0,0,1-14,10.49,11,11,0,0,1-1.62.2c-4.1,0-5.53-1.65-4.45-5.14A33,33,0,0,1,166.49,55c1.94-1.41,4.19-2.06,6.41-.63C175.35,55.9,175.8,58.51,175.53,61.1Z" style="fill:#747e80"/></g><g style="opacity:0.6"><path d="M29.59,72.06a15.79,15.79,0,0,0-1-2.85,36.83,36.83,0,0,0-9.41-12.53A16.77,16.77,0,0,0,14.9,54a4.53,4.53,0,0,0-6.35,2.78,12,12,0,0,0-.5,5.6c1,5.61,4.81,9.31,9.44,12.24a15.19,15.19,0,0,0,7.15,2.59C29.28,77.18,30.48,75.67,29.59,72.06Z" style="fill:none"/><path d="M33.38,87.48c2.46-.19,4.8-.62,6.2-3.36H26.08C26.61,86.59,30.42,87.71,33.38,87.48Z" style="fill:none"/><path d="M42,77a10.77,10.77,0,0,1-1.61.2c-4.11,0-5.53-1.65-4.45-5.14A31.16,31.16,0,0,1,42.2,60.77q-.42-3.29-.52-6.69c-.24-7.79.13-15.49,2.65-22.94A49.41,49.41,0,0,1,50,19.42a34.92,34.92,0,0,0-5-2.18,38.43,38.43,0,0,0-18.61-1.37C14.26,17.75,5.8,24.26,1.81,36.09.13,41.05-.12,46.19,0,51.38c.25,8.21,2.49,15.75,7.59,22.27,3.47,4.44,7,8.83,10.78,13a41.3,41.3,0,0,0,6.82,6c5.05,3.59,9.83,3.53,15,0a23.77,23.77,0,0,0,4.34-3.5c1.82-2,3.64-4.07,5.44-6.12a51.13,51.13,0,0,1-3.89-7.48A22.39,22.39,0,0,1,42,77Zm-17.31.2a15.19,15.19,0,0,1-7.15-2.59C12.86,71.68,9.08,68,8.05,62.37a12,12,0,0,1,.5-5.6A4.53,4.53,0,0,1,14.9,54a16.77,16.77,0,0,1,4.28,2.69,36.83,36.83,0,0,1,9.41,12.53,15.79,15.79,0,0,1,1,2.85C30.48,75.67,29.28,77.18,24.64,77.2Zm8.74,10.28c-3,.23-6.77-.89-7.3-3.36h13.5C38.18,86.86,35.84,87.29,33.38,87.48Z" style="fill:#747e80"/></g></svg>