<svg xmlns="http://www.w3.org/2000/svg" xmlns:xlink="http://www.w3.org/1999/xlink" viewBox="0 0 96 96"><defs><clipPath id="a"><rect x="1" y="1" width="94" height="94" style="fill:none"/></clipPath></defs><g style="clip-path:url(#a)"><path d="M48,95A47,47,0,1,0,1,48,47,47,0,0,0,48,95Z" style="fill:#323637"/><path d="M48.27,24.42c4.52,0,8.19-2.13,8.19-4.76s-3.67-4.77-8.19-4.77-8.2,2.13-8.2,4.77S43.74,24.42,48.27,24.42Z" style="fill:#c4c4c4"/><path d="M56.43,19.66A4.08,4.08,0,0,1,54.05,23a11.7,11.7,0,0,1-5.78,1.39A11.67,11.67,0,0,1,42.49,23a4.1,4.1,0,0,1-2.39-3.34,4.1,4.1,0,0,1,2.39-3.35,11.67,11.67,0,0,1,5.78-1.39,11.7,11.7,0,0,1,5.78,1.39A4.09,4.09,0,0,1,56.43,19.66Z" style="fill:none;stroke:#120000;stroke-width:0.05699528162880047px"/><path d="M48,33.52c15.13,0,27.4-3.13,27.4-7s-12.27-7-27.4-7-27.4,3.13-27.4,7S32.86,33.52,48,33.52Z" style="fill:#77bed2"/><path d="M48,34.65c5.88,0,10.65-1.35,10.65-3s-4.77-3-10.65-3-10.65,1.34-10.65,3S42.11,34.65,48,34.65Z" style="fill:#f2583e"/><path d="M59.39,31c0,1.79-5,3.25-11.29,3.25S36.8,32.78,36.8,31s5.06-3.25,11.3-3.25S59.39,29.19,59.39,31Z" style="fill-opacity:0.019999999552965164"/><path d="M90,48.17a41.93,41.93,0,1,1-41.93-42A42,42,0,0,1,90,48.17Z" style="fill:none;stroke:#ed563d;stroke-width:2.2798112651520186px"/><path d="M92.43,48A44.44,44.44,0,1,1,48,3.43,44.5,44.5,0,0,1,92.43,48Z" style="fill:none;stroke:#77bed2;stroke-width:1.1399020689298052px"/><path d="M48,31.4,76.6,80l-9.29,5.42-9.84,3.22-9.42.71-9.48-1-9.26-2.88L21.19,80Z" style="fill:#ed563d"/><path d="M45.65,53.38c-.77,2-1.65,3.2-3.29,2.55s-2.9-3.49-2.12-5.45,2.18-2.49,3.83-1.84S46.43,51.42,45.65,53.38Z" style="fill:#323637"/><path d="M44.31,52.2c-.12.68-.3,1.13-.73,1s-.84-.88-.71-1.56.46-.94.89-.86S44.44,51.52,44.31,52.2Z" style="fill:#f2583e"/><path d="M44.86,52.23c0,.65,0,1.1.39,1.13s.66-.6.71-1.24.06-1-.32-1S44.91,51.59,44.86,52.23Z" style="fill:#f2583e"/><path d="M38.25,62.82a4.81,4.81,0,0,1,.82-6.75,2.77,2.77,0,0,1,3.89.47L49.61,65l-5.13,4A1.06,1.06,0,0,1,43,68.87Z" style="fill:#323637"/><path d="M38.92,55.49a5.08,5.08,0,0,1,6,3.94,2.91,2.91,0,0,1-2.26,3.46l-3.45.72-1.53-7.34a.5.5,0,0,1,.39-.6Z" style="fill:#323637"/><path d="M42.78,63.48l3-1.29,1.71-.6,2.75-1L51.84,60a2,2,0,0,1,2.55,1.09l0,.07a.17.17,0,0,1-.14.23.2.2,0,0,1-.13,0l-.29-.19a.49.49,0,0,0-.59,0,.52.52,0,0,1-.51.06l-.07,0a.64.64,0,0,0-.64.08l-2.66,2a1.87,1.87,0,0,1-.39.22l-5.39,2.17Z" style="fill:#323637"/><path d="M40.44,58.46l1,4.35.43,2.43.67,3.91.57,2.56a2.37,2.37,0,0,1-1.83,2.84h0a.25.25,0,0,1-.29-.24.29.29,0,0,1,.07-.16l.26-.31A.75.75,0,0,0,41.4,73a.79.79,0,0,1,0-.7l.06-.1a1,1,0,0,0,.07-.82l-2.9-7.88a1.34,1.34,0,0,1-.07-.27L37.74,59Z" style="fill:#323637"/><path d="M43,55.65l-.55,1a1.26,1.26,0,0,1-.19.28l-.35.42-.73.86s0,0,0,0a1.37,1.37,0,0,1-1.94.42L38.29,58a.06.06,0,0,1,0-.1h0l.54.21A.11.11,0,0,0,39,58a.1.1,0,0,1,.13-.11l.17,0a.22.22,0,0,0,.28-.23l-.09-1.21a1.19,1.19,0,0,1,.17-.66l1.09-1.69Z" style="fill:#323637"/><path d="M66.16,68.56a1.5,1.5,0,0,1-.85,1.94l-2.57,1a1,1,0,0,1-1.3-.57l-.29-.75a.12.12,0,0,1,.07-.15l1.72-.7a.14.14,0,0,1,.11,0l0,0,.06,0,.07,0h.54l.1,0,.43-.18.32-.17,1-.65A.35.35,0,0,1,66.16,68.56Z" style="fill:#323637"/><path d="M63.4,73.74a1.67,1.67,0,0,1-1.49,1.84l-3.08.32a1.11,1.11,0,0,1-1.23-1l-.1-.9a.14.14,0,0,1,.11-.14l2.08-.25a.15.15,0,0,1,.11,0l0,0,.06,0,.07.06,0,0,.06,0,.09,0,.08,0,.08,0,.07,0,.07,0h0a0,0,0,0,0,0,0h.13l.51-.06.39-.09,1.32-.4A.4.4,0,0,1,63.4,73.74Z" style="fill:#323637"/><path d="M50.53,65.09a.16.16,0,0,1-.22,0l-.21-.36a.39.39,0,0,1,.14-.54l5.64-3.35L56,61A.76.76,0,0,1,55.72,62Z" style="fill:#323637"/><path d="M55.57,61a.16.16,0,0,0,.14.18h.16a.39.39,0,0,0,.43-.35L57,53.91l-.71-.07Z" style="fill:#323637"/><path d="M46.16,67.11a.22.22,0,0,1,.08-.3l7.38-4.21a.4.4,0,0,1,.54.14l1.09,1.93L49.42,68A2.4,2.4,0,0,1,46.16,67.11Z" style="fill:#323637"/><path d="M46.65,69a.1.1,0,0,1,0-.13l7.71-4.4a.15.15,0,0,1,.19,0A1.2,1.2,0,0,1,54.34,66l-.32.28-.91.65L48,69.47A1.05,1.05,0,0,1,46.65,69Z" style="fill:#323637"/><path d="M43.05,68.89l6.43-4a1.57,1.57,0,0,1,2.17.5A1.71,1.71,0,0,1,51,67.81l-1.57.79-1.71,1.22A3.25,3.25,0,0,1,43.05,68.89Z" style="fill:#323637"/><path d="M43.64,69.51,52,64.32a1.59,1.59,0,0,1,2.19.5,1.72,1.72,0,0,1-.66,2.44L51.13,68.5l-2.83,2A3.29,3.29,0,0,1,43.64,69.51Z" style="fill:#323637"/><path d="M49.17,68.67l-5.74-3.59a2.14,2.14,0,0,1-.67-2.95l.42-.69a1.65,1.65,0,0,1,2.47-.36l1.87,1.06A4.66,4.66,0,0,1,49.17,68.67Z" style="fill:#323637"/><path d="M56,64.57a.4.4,0,0,1,.52.21l3.76,9-2.63,1.1-3.72-8.42-.11-.52a.46.46,0,0,1,.27-.53Z" style="fill:#323637"/><path d="M55.4,64.58a.15.15,0,0,1,.15.15l0,1.07-1.13,0v-.24A1,1,0,0,1,55.4,64.58Z" style="fill:#323637"/><path d="M53.71,63a2.56,2.56,0,0,1,3.61.14l5.92,6.41L61.15,71.5l-7.66-8.29Z" style="fill:#323637"/><path d="M48.27,77.94l2.39,5.22H45.88Z" style="fill:#323637"/><path d="M48.28,80.12l2.88,6.28H45.4Z" style="fill:#323637"/><path d="M48.27,81.66l3.84,8.4-3.84-1.84-3.85,1.84Z" style="fill:#323637"/><path d="M48.88,85.9H47.67v5.48h1.21Z" style="fill:#323637"/><path d="M51.72,78.17l3.57,4.49-4.64,1.15Z" style="fill:#323637"/><path d="M52.25,80.28l4.3,5.41L51,87.08Z" style="fill:#323637"/><path d="M52.61,81.77,58.36,89l-4.17-.86L50.9,90.85Z" style="fill:#323637"/><path d="M54.22,85.75,53.05,86,54.3,91.1l1.17-.29Z" style="fill:#323637"/><path d="M43.88,77.93l-3.57,4.49,4.63,1.15Z" style="fill:#323637"/><path d="M43.35,80l-4.3,5.41,5.58,1.38Z" style="fill:#323637"/><path d="M43,81.53l-5.76,7.23,4.18-.86,3.29,2.71Z" style="fill:#323637"/><path d="M41.38,85.5l1.17.29-1.26,5.06-1.17-.29Z" style="fill:#323637"/><path d="M36.79,81l-2.36,3,3.06.75Z" style="fill:#323637"/><path d="M36.44,82.43,33.61,86l3.67.91Z" style="fill:#323637"/><path d="M36.2,83.41l-3.79,4.76,2.75-.57,2.17,1.79Z" style="fill:#323637"/><path d="M35.14,86l.77.19-.83,3.33-.77-.19Z" style="fill:#323637"/><path d="M59.26,81l-1.19,3.58,3.13-.33Z" style="fill:#323637"/><path d="M59.42,82.47,58,86.78l3.76-.41Z" style="fill:#323637"/><path d="M59.53,83.47l-1.92,5.77L60,87.76l2.65.93Z" style="fill:#323637"/><path d="M59.43,86.3l.79-.09.37,3.42-.79.08Z" style="fill:#323637"/><path d="M47.71,31.54,21.42,78.92a44.14,44.14,0,0,1-12.7-21.2,41.59,41.59,0,0,1,1.46-24.21,41.1,41.1,0,0,1,14.7-19.16,40.36,40.36,0,0,1,45.87-.64A41.06,41.06,0,0,1,86,32.46a41.55,41.55,0,0,1,2.12,24.15c-1.68,8-6.73,16-12.55,21.69L48.21,31.54,48,31.11Z" style="fill:none;stroke:#f5b467;stroke-width:0.5699528162880046px"/></g></svg>