<svg width="302" height="331" viewBox="0 0 302 331" fill="none" xmlns="http://www.w3.org/2000/svg">
<g filter="url(#filter0_i_46_337)">
<ellipse cx="152.268" cy="26.2104" rx="45.0843" ry="26.2104" fill="#C4C4C4"/>
</g>
<path d="M197.195 26.2104C197.195 33.369 192.203 39.8792 184.069 44.6084C175.938 49.3353 164.695 52.264 152.268 52.264C139.841 52.264 128.598 49.3353 120.467 44.6084C112.333 39.8792 107.34 33.369 107.34 26.2104C107.34 19.0517 112.333 12.5416 120.467 7.81236C128.598 3.08544 139.841 0.156761 152.268 0.156761C164.695 0.156761 175.938 3.08544 184.069 7.81236C192.203 12.5416 197.195 19.0517 197.195 26.2104Z" stroke="#120000" stroke-width="0.313521"/>
<g filter="url(#filter1_i_46_337)">
<ellipse cx="150.733" cy="64.0859" rx="150.71" ry="38.375" fill="#77BED2"/>
</g>
<g filter="url(#filter2_i_46_337)">
<ellipse cx="150.734" cy="92.1437" rx="58.5971" ry="16.5226" fill="#F2583E"/>
</g>
<g filter="url(#filter3_i_46_337)">
<path d="M212.721 88.9332C212.721 98.8029 184.9 106.804 150.581 106.804C116.262 106.804 88.4414 98.8029 88.4414 88.9332C88.4414 79.0635 116.262 71.0625 150.581 71.0625C184.9 71.0625 212.721 79.0635 212.721 88.9332Z" fill="black" fill-opacity="0.02"/>
</g>
<path d="M80.8294 327.472L151.486 97.5368L223.745 327.472H184.066H171.568H155.406H141.052H119.319H80.8294Z" fill="#F2583E" stroke="#DFB775" stroke-width="3.27472"/>
<g filter="url(#filter4_i_46_337)">
<path d="M144.237 187.659C143.053 190.664 141.716 192.554 139.197 191.561C136.678 190.567 134.777 186.229 135.962 183.225C137.146 180.221 139.301 179.428 141.821 180.421C144.34 181.415 145.422 184.655 144.237 187.659Z" fill="#323637"/>
</g>
<g filter="url(#filter5_i_46_337)">
<path d="M142.197 185.856C142.004 186.888 141.735 187.583 141.072 187.459C140.41 187.335 139.788 186.113 139.981 185.08C140.174 184.048 140.685 183.637 141.347 183.761C142.01 183.885 142.39 184.823 142.197 185.856Z" fill="#F2583E"/>
</g>
<g filter="url(#filter6_i_46_337)">
<path d="M142.966 185.94C142.896 186.923 142.967 187.615 143.553 187.657C144.139 187.699 144.57 186.751 144.64 185.769C144.71 184.786 144.741 184.279 144.155 184.237C143.569 184.195 143.037 184.958 142.966 185.94Z" fill="#F2583E"/>
</g>
<path d="M132.925 202.083C130.423 198.887 130.985 194.268 134.181 191.766V191.766C136.022 190.325 138.683 190.649 140.125 192.49L150.296 205.48L142.455 211.619C141.749 212.172 140.728 212.048 140.175 211.342L132.925 202.083Z" fill="#323637"/>
<path d="M139.849 203.09L144.452 201.124L147.069 200.201L151.265 198.736L153.698 197.731C155.233 197.098 156.989 197.847 157.594 199.393L157.636 199.501C157.698 199.658 157.594 199.83 157.426 199.849V199.849C157.356 199.857 157.286 199.839 157.228 199.8L156.784 199.498C156.511 199.311 156.149 199.319 155.883 199.516V199.516C155.659 199.682 155.363 199.716 155.107 199.604L154.997 199.556C154.674 199.414 154.3 199.456 154.016 199.666L149.951 202.669C149.766 202.806 149.565 202.918 149.351 203.004L141.114 206.324L139.849 203.09Z" fill="#323637"/>
<path d="M136.275 195.432L137.832 202.069L138.483 205.793L139.508 211.758L140.384 215.685C140.825 217.658 139.563 219.61 137.582 220.018L137.504 220.034C137.278 220.081 137.067 219.903 137.074 219.672V219.672C137.077 219.578 137.112 219.488 137.174 219.417L137.576 218.951C137.875 218.605 137.942 218.115 137.747 217.701V217.701C137.586 217.358 137.602 216.957 137.792 216.628L137.878 216.48C138.099 216.099 138.138 215.639 137.986 215.226L133.554 203.171C133.505 203.038 133.467 202.902 133.439 202.764L132.149 196.282L136.275 195.432Z" fill="#323637"/>
<path d="M140.127 191.122L139.291 192.618C139.207 192.768 139.11 192.909 138.999 193.041L138.461 193.68L137.335 194.994C137.325 195.005 137.316 195.018 137.308 195.031V195.031C136.689 196.052 135.339 196.344 134.353 195.669L132.992 194.739C132.932 194.698 132.946 194.606 133.015 194.584V194.584C133.037 194.578 133.06 194.579 133.081 194.587L133.906 194.909C134.017 194.952 134.135 194.865 134.126 194.746V194.746C134.117 194.635 134.222 194.548 134.33 194.579L134.585 194.65C134.816 194.715 135.041 194.531 135.023 194.291L134.888 192.445C134.862 192.09 134.952 191.736 135.144 191.437L136.803 188.849L140.127 191.122Z" fill="#323637"/>
<path d="M175.589 210.865C176.045 212.043 175.459 213.367 174.281 213.823L170.352 215.342C169.565 215.646 168.681 215.255 168.376 214.468L167.933 213.32C167.897 213.228 167.942 213.124 168.034 213.087L170.662 212.029C170.716 212.008 170.777 212.012 170.827 212.042L170.89 212.08L170.989 212.123L171.092 212.169C171.109 212.176 171.127 212.181 171.145 212.183L171.231 212.194L171.359 212.194L171.473 212.194L171.58 212.194L171.686 212.194L171.786 212.194L171.851 212.194C171.874 212.194 171.897 212.19 171.918 212.182L172.071 212.123L172.725 211.853L173.208 211.597L174.804 210.603C175.09 210.424 175.468 210.551 175.589 210.865V210.865Z" fill="#323637"/>
<path d="M171.366 218.773C171.513 220.182 170.491 221.444 169.082 221.591L164.383 222.084C163.441 222.182 162.598 221.499 162.5 220.557L162.354 219.168C162.344 219.067 162.416 218.977 162.517 218.965L165.701 218.587C165.759 218.58 165.816 218.601 165.857 218.642L165.922 218.71L166.017 218.785L166.117 218.867C166.132 218.879 166.147 218.888 166.164 218.895L166.258 218.933L166.396 218.971L166.52 219.004L166.635 219.036L166.751 219.067L166.858 219.096L166.933 219.116C166.955 219.122 166.978 219.124 167 219.122L167.187 219.103L167.975 219.002L168.573 218.867L170.592 218.259C170.954 218.15 171.326 218.397 171.366 218.773V218.773Z" fill="#323637"/>
<path d="M151.69 205.564C151.577 205.631 151.43 205.593 151.363 205.48L151.034 204.924C150.865 204.638 150.96 204.268 151.246 204.099L159.879 198.993L160.04 199.265C160.369 199.822 160.185 200.54 159.628 200.87L151.69 205.564Z" fill="#323637"/>
<path d="M159.394 199.254C159.381 199.386 159.478 199.502 159.609 199.515L159.862 199.539C160.193 199.571 160.487 199.328 160.519 198.996L161.524 188.471L160.433 188.367L159.394 199.254Z" fill="#323637"/>
<path d="M141.164 212.309L153.863 204.374C155 203.664 156.498 204.009 157.208 205.146V205.146C158.02 206.446 157.558 208.162 156.203 208.878L152.614 210.774L148.282 213.775C145.925 215.408 142.683 214.74 141.164 212.309V212.309Z" fill="#323637"/>
<path d="M138.699 206.309L143.06 211.409C143.45 211.865 143.396 212.552 142.94 212.942V212.942C142.418 213.389 141.626 213.298 141.219 212.745L140.14 211.281L138.522 209.56C137.642 208.625 137.723 207.143 138.699 206.309V206.309Z" fill="#323637"/>
<path d="M141.164 210.854L146.083 205.533C146.523 205.057 147.267 205.027 147.743 205.468V205.468C148.288 205.971 148.29 206.831 147.748 207.338L146.314 208.68L144.674 210.632C143.781 211.694 142.183 211.795 141.164 210.854V210.854Z" fill="#323637"/>
<path d="M149.621 211.021L140.854 205.539C139.323 204.581 138.858 202.564 139.815 201.033L140.47 199.985C141.287 198.68 143.077 198.415 144.236 199.427V199.427L147.093 201.046C150.621 203.045 151.771 207.583 149.621 211.021V211.021Z" fill="#323637"/>
<path d="M160.07 204.757C160.376 204.628 160.73 204.772 160.859 205.079L166.616 218.774L162.595 220.465L156.907 207.589L156.732 206.794C156.658 206.458 156.835 206.117 157.152 205.984L160.07 204.757Z" fill="#323637"/>
<path d="M156.555 202.379C158.139 200.915 160.608 201.012 162.072 202.595L171.128 212.388L167.925 215.35L156.219 202.69L156.555 202.379Z" fill="#323637"/>
<path d="M144.936 209.287C144.844 209.126 144.9 208.922 145.06 208.83L156.334 202.394C156.623 202.229 156.991 202.329 157.156 202.618L158.833 205.557L149.917 210.648C148.166 211.648 145.936 211.038 144.936 209.287V209.287Z" fill="#323637"/>
<path d="M153.556 292.434L160.134 306.816H146.979L153.556 292.434Z" fill="#323637"/>
<path d="M153.571 298.428L161.494 315.729H145.648L153.571 298.428Z" fill="#323637"/>
<path d="M153.534 302.666L164.127 325.798L153.534 320.734L142.941 325.798L153.534 302.666Z" fill="#323637"/>
<rect x="151.891" y="314.34" width="3.32694" height="15.0968" fill="#323637"/>
<path d="M136.271 298.498L140.985 311.327L129.649 310.455L136.271 298.498Z" fill="#323637"/>
<path d="M135.887 303.664L141.567 319.097L127.912 318.046L135.887 303.664Z" fill="#323637"/>
<path d="M135.577 307.312L143.17 327.946L134.378 322.88L124.915 326.541L135.577 307.312Z" fill="#323637"/>
<rect x="133.383" y="317.264" width="2.87517" height="13.0468" transform="rotate(4.40248 133.383 317.264)" fill="#323637"/>
<path d="M121.305 303.699L124.005 314.95L114.56 313.1L121.305 303.699Z" fill="#323637"/>
<path d="M120.479 308.003L123.735 321.54L112.357 319.311L120.479 308.003Z" fill="#323637"/>
<path d="M119.859 311.044L124.212 329.142L117.318 324.017L109.001 326.163L119.859 311.044Z" fill="#323637"/>
<rect x="117.453" y="319.316" width="2.43404" height="11.045" transform="rotate(11.0819 117.453 319.316)" fill="#323637"/>
<path d="M107.967 304.245L109.1 315.76L99.9969 312.633L107.967 304.245Z" fill="#323637"/>
<path d="M106.553 308.397L107.924 322.252L96.959 318.486L106.553 308.397Z" fill="#323637"/>
<path d="M105.525 311.32L107.357 329.843L101.231 323.822L92.698 324.808L105.525 311.32Z" fill="#323637"/>
<rect x="101.609" y="319.008" width="2.43404" height="11.045" transform="rotate(18.9557 101.609 319.008)" fill="#323637"/>
<rect width="2.43404" height="11.045" transform="matrix(-0.981354 0.192212 0.192212 0.981354 190.18 319.002)" fill="#323637"/>
<path d="M170.944 298.305L166.23 311.134L177.566 310.261L170.944 298.305Z" fill="#323637"/>
<path d="M171.328 303.472L165.648 318.906L179.303 317.855L171.328 303.472Z" fill="#323637"/>
<path d="M171.638 307.121L164.045 327.755L172.837 322.689L182.3 326.35L171.638 307.121Z" fill="#323637"/>
<rect width="2.87517" height="13.0468" transform="matrix(-0.997049 0.0767622 0.0767622 0.997049 173.832 317.072)" fill="#323637"/>
<path d="M185.91 303.508L183.21 314.759L192.655 312.909L185.91 303.508Z" fill="#323637"/>
<path d="M186.736 307.816L183.48 321.352L194.858 319.124L186.736 307.816Z" fill="#323637"/>
<path d="M187.356 310.853L183.003 328.95L189.896 323.825L198.214 325.971L187.356 310.853Z" fill="#323637"/>
<path d="M199.252 304.051L198.119 315.566L207.222 312.44L199.252 304.051Z" fill="#323637"/>
<path d="M200.662 308.204L199.291 322.058L210.256 318.292L200.662 308.204Z" fill="#323637"/>
<path d="M201.69 311.129L199.858 329.652L205.984 323.631L214.517 324.617L201.69 311.129Z" fill="#323637"/>
<rect width="2.43404" height="11.045" transform="matrix(-0.94577 0.324837 0.324837 0.94577 205.605 318.816)" fill="#323637"/>
<defs>
<filter id="filter0_i_46_337" x="107.184" y="0" width="90.4188" height="52.6707" filterUnits="userSpaceOnUse" color-interpolation-filters="sRGB">
<feFlood flood-opacity="0" result="BackgroundImageFix"/>
<feBlend mode="normal" in="SourceGraphic" in2="BackgroundImageFix" result="shape"/>
<feColorMatrix in="SourceAlpha" type="matrix" values="0 0 0 0 0 0 0 0 0 0 0 0 0 0 0 0 0 0 127 0" result="hardAlpha"/>
<feOffset dx="12.5408" dy="0.250817"/>
<feGaussianBlur stdDeviation="0.125408"/>
<feComposite in2="hardAlpha" operator="arithmetic" k2="-1" k3="1"/>
<feColorMatrix type="matrix" values="0 0 0 0 0 0 0 0 0 0 0 0 0 0 0 0 0 0 0.2 0"/>
<feBlend mode="normal" in2="shape" result="effect1_innerShadow_46_337"/>
</filter>
<filter id="filter1_i_46_337" x="0.0234375" y="25.7109" width="303.55" height="76.75" filterUnits="userSpaceOnUse" color-interpolation-filters="sRGB">
<feFlood flood-opacity="0" result="BackgroundImageFix"/>
<feBlend mode="normal" in="SourceGraphic" in2="BackgroundImageFix" result="shape"/>
<feColorMatrix in="SourceAlpha" type="matrix" values="0 0 0 0 0 0 0 0 0 0 0 0 0 0 0 0 0 0 127 0" result="hardAlpha"/>
<feMorphology radius="1.88113" operator="erode" in="SourceAlpha" result="effect1_innerShadow_46_337"/>
<feOffset dx="3.76225"/>
<feGaussianBlur stdDeviation="0.125408"/>
<feComposite in2="hardAlpha" operator="arithmetic" k2="-1" k3="1"/>
<feColorMatrix type="matrix" values="0 0 0 0 0 0 0 0 0 0 0 0 0 0 0 0 0 0 0.2 0"/>
<feBlend mode="normal" in2="shape" result="effect1_innerShadow_46_337"/>
</filter>
<filter id="filter2_i_46_337" x="92.1367" y="75.6211" width="117.509" height="36.1801" filterUnits="userSpaceOnUse" color-interpolation-filters="sRGB">
<feFlood flood-opacity="0" result="BackgroundImageFix"/>
<feBlend mode="normal" in="SourceGraphic" in2="BackgroundImageFix" result="shape"/>
<feColorMatrix in="SourceAlpha" type="matrix" values="0 0 0 0 0 0 0 0 0 0 0 0 0 0 0 0 0 0 127 0" result="hardAlpha"/>
<feMorphology radius="6.27042" operator="erode" in="SourceAlpha" result="effect1_innerShadow_46_337"/>
<feOffset dx="0.313521" dy="3.13521"/>
<feGaussianBlur stdDeviation="0.125408"/>
<feComposite in2="hardAlpha" operator="arithmetic" k2="-1" k3="1"/>
<feColorMatrix type="matrix" values="0 0 0 0 0 0 0 0 0 0 0 0 0 0 0 0 0 0 0.5 0"/>
<feBlend mode="normal" in2="shape" result="effect1_innerShadow_46_337"/>
</filter>
<filter id="filter3_i_46_337" x="88.4414" y="71.0625" width="124.532" height="35.993" filterUnits="userSpaceOnUse" color-interpolation-filters="sRGB">
<feFlood flood-opacity="0" result="BackgroundImageFix"/>
<feBlend mode="normal" in="SourceGraphic" in2="BackgroundImageFix" result="shape"/>
<feColorMatrix in="SourceAlpha" type="matrix" values="0 0 0 0 0 0 0 0 0 0 0 0 0 0 0 0 0 0 127 0" result="hardAlpha"/>
<feOffset dx="0.313521" dy="3.13521"/>
<feGaussianBlur stdDeviation="0.125408"/>
<feComposite in2="hardAlpha" operator="arithmetic" k2="-1" k3="1"/>
<feColorMatrix type="matrix" values="0 0 0 0 0 0 0 0 0 0 0 0 0 0 0 0 0 0 0.2 0"/>
<feBlend mode="normal" in2="shape" result="effect1_innerShadow_46_337"/>
</filter>
<filter id="filter4_i_46_337" x="135.602" y="180.016" width="9.32089" height="12.0142" filterUnits="userSpaceOnUse" color-interpolation-filters="sRGB">
<feFlood flood-opacity="0" result="BackgroundImageFix"/>
<feBlend mode="normal" in="SourceGraphic" in2="BackgroundImageFix" result="shape"/>
<feColorMatrix in="SourceAlpha" type="matrix" values="0 0 0 0 0 0 0 0 0 0 0 0 0 0 0 0 0 0 127 0" result="hardAlpha"/>
<feOffset dx="1.0185" dy="0.203701"/>
<feGaussianBlur stdDeviation="0.10185"/>
<feComposite in2="hardAlpha" operator="arithmetic" k2="-1" k3="1"/>
<feColorMatrix type="matrix" values="0 0 0 0 0 0 0 0 0 0 0 0 0 0 0 0 0 0 0.25 0"/>
<feBlend mode="normal" in2="shape" result="effect1_innerShadow_46_337"/>
</filter>
<filter id="filter5_i_46_337" x="139.945" y="183.74" width="2.50448" height="3.93612" filterUnits="userSpaceOnUse" color-interpolation-filters="sRGB">
<feFlood flood-opacity="0" result="BackgroundImageFix"/>
<feBlend mode="normal" in="SourceGraphic" in2="BackgroundImageFix" result="shape"/>
<feColorMatrix in="SourceAlpha" type="matrix" values="0 0 0 0 0 0 0 0 0 0 0 0 0 0 0 0 0 0 127 0" result="hardAlpha"/>
<feOffset dx="1.0185" dy="0.203701"/>
<feGaussianBlur stdDeviation="0.10185"/>
<feComposite in2="hardAlpha" operator="arithmetic" k2="-1" k3="1"/>
<feColorMatrix type="matrix" values="0 0 0 0 0 0 0 0 0 0 0 0 0 0 0 0 0 0 0.25 0"/>
<feBlend mode="normal" in2="shape" result="effect1_innerShadow_46_337"/>
</filter>
<filter id="filter6_i_46_337" x="142.945" y="184.236" width="1.93417" height="3.62558" filterUnits="userSpaceOnUse" color-interpolation-filters="sRGB">
<feFlood flood-opacity="0" result="BackgroundImageFix"/>
<feBlend mode="normal" in="SourceGraphic" in2="BackgroundImageFix" result="shape"/>
<feColorMatrix in="SourceAlpha" type="matrix" values="0 0 0 0 0 0 0 0 0 0 0 0 0 0 0 0 0 0 127 0" result="hardAlpha"/>
<feOffset dx="1.0185" dy="0.203701"/>
<feGaussianBlur stdDeviation="0.10185"/>
<feComposite in2="hardAlpha" operator="arithmetic" k2="-1" k3="1"/>
<feColorMatrix type="matrix" values="0 0 0 0 0 0 0 0 0 0 0 0 0 0 0 0 0 0 0.25 0"/>
<feBlend mode="normal" in2="shape" result="effect1_innerShadow_46_337"/>
</filter>
</defs>
</svg>
